<?xml version="1.0" encoding="UTF-8" standalone="no"?>
<svg
   xmlns:dc="http://purl.org/dc/elements/1.1/"
   xmlns:cc="http://creativecommons.org/ns#"
   xmlns:rdf="http://www.w3.org/1999/02/22-rdf-syntax-ns#"
   xmlns:svg="http://www.w3.org/2000/svg"
   xmlns="http://www.w3.org/2000/svg"
   id="svg4668"
   version="1.1"
   width="2048"
   height="1024">
  <metadata
     id="metadata4674">
    <rdf:RDF>
      <cc:Work
         rdf:about="">
        <dc:format>image/svg+xml</dc:format>
        <dc:type
           rdf:resource="http://purl.org/dc/dcmitype/StillImage" />
        <dc:title></dc:title>
      </cc:Work>
    </rdf:RDF>
  </metadata>
  <defs
     id="defs4672" />
  <g style="opacity:0.5">
  <path
     style="stroke-width:0.80000001;fill:#000000"
     id="path4666"
     d="M 511.9504,382.4 C 440.4248,382.4 382.4,440.4248 382.4,512 c 0,71.5 58.0248,129.6496 129.5504,129.6496 71.5504,0 129.1504,-58.1504 129.1504,-129.6496 C 641.1,440.4248 583.5,382.4 511.9504,382.4 Z M 771.7,586.4496 l -23.3504,56.2496 41.6496,81.8 5.5,10.8 -57.7504,57.7504 L 643,748.3 586.7504,771.4 558.2,858.8 554.5504,870.4 H 472.9248 L 437.6,771.7504 l -56.2496,-23.2 -81.9232,41.5504 -10.8,5.4 -57.7248,-57.7 44.7,-94.8 -23.1752,-56.2 L 165.1752,558.3 153.6,554.5504 V 472.9752 L 252.3248,437.6 275.5,381.4496 233.9752,299.4744 228.5,288.724 286.1496,231.0744 381.0248,275.7496 437.2,252.5248 465.7248,165.1744 469.4,153.6 H 551 l 35.3504,98.7752 56.1,23.2248 81.9496,-41.5752 10.9,-5.4752 57.7,57.6496 -44.7,94.7248 23.1,56.276 87.5,28.5248 11.5,3.6752 v 81.5504 z" />
  <path
     style="stroke-width:0.80000001;fill:#ffffff"
     id="path4666-3"
     d="m 1535.9504,382.4 c -71.5256,0 -129.5504,58.0248 -129.5504,129.6 0,71.5 58.0248,129.6496 129.5504,129.6496 71.5504,0 129.1504,-58.1504 129.1504,-129.6496 C 1665.1,440.4248 1607.5,382.4 1535.9504,382.4 Z m 259.7496,204.0496 -23.3504,56.2496 41.6496,81.8 5.5,10.8 -57.7504,57.7504 L 1667,748.3 l -56.2496,23.1 -28.5504,87.4 -3.6496,11.6 h -81.6256 l -35.3248,-98.6496 -56.2496,-23.2 -81.9232,41.5504 -10.8,5.4 -57.7248,-57.7 44.7,-94.8 -23.1752,-56.2 L 1189.1752,558.3 1177.6,554.5504 V 472.9752 L 1276.3248,437.6 1299.5,381.4496 1257.9752,299.4744 1252.5,288.724 l 57.6496,-57.6496 94.8752,44.6752 56.1752,-23.2248 28.5248,-87.3504 L 1493.4,153.6 h 81.6 l 35.3504,98.7752 56.1,23.2248 81.9496,-41.5752 10.9,-5.4752 57.7,57.6496 -44.7,94.7248 23.1,56.276 87.5,28.5248 11.5,3.6752 v 81.5504 z" />
  </g>
</svg>
